<?xml version="1.0" encoding="UTF-8"?>
<svg xmlns="http://www.w3.org/2000/svg" xmlns:xlink="http://www.w3.org/1999/xlink" viewBox="0 0 32 32" width="32px" height="32px">
<g id="surface131333061">
<path style=" stroke:none;fill-rule:nonzero;fill:rgb(20%,20%,20%);fill-opacity:1;" d="M 15.902344 6.097656 C 13 6.097656 10.597656 6.699219 10.199219 6.800781 C 10.597656 6.902344 10.902344 7 11.300781 7.402344 L 11.402344 7.402344 C 11.699219 7.300781 13.800781 6.699219 16.902344 6.699219 C 25.902344 6.699219 32 12.5 32 17.902344 L 32 18.402344 C 32 18.5 32 18.5 32.097656 18.402344 L 32.097656 17.402344 C 32 13.199219 27.199219 6.097656 15.902344 6.097656 Z M 17.097656 7.199219 C 6.898438 7.199219 0.699219 14 0 14.800781 C -0.101562 14.800781 -0.101562 14.800781 0 14.902344 C 3 15.699219 7.800781 19 9.800781 25 L 9.902344 25 C 12.699219 21.5 16.898438 18.597656 21.699219 18.597656 C 25.699219 18.597656 28.199219 20.699219 28.199219 22.597656 C 28.199219 23.5 27.898438 24.300781 27.097656 24.902344 C 27.800781 24.402344 28.5 23.5 28.5 22.5 C 28.5 21.398438 27.902344 20.597656 27.902344 20.597656 C 28.300781 21 28.402344 21.402344 28.402344 21.402344 C 28.699219 19.402344 29.699219 18.300781 29.699219 18.300781 C 29.597656 17.800781 29.402344 17.402344 29.402344 17.402344 C 29.800781 17.800781 30.097656 18.800781 30.097656 19.5 C 30.097656 20 29.898438 20.601562 29.5 21 C 29.898438 20.800781 30.300781 20.300781 30.300781 19.199219 C 30.300781 18.398438 30.097656 17.902344 30.097656 17.902344 C 30.398438 17.601562 30.699219 17.402344 30.902344 17.300781 C 30.902344 17.5 31 17.800781 31 18 C 31 18.101562 31 18.101562 31.097656 18 L 31.097656 17.199219 C 31.398438 17 31.597656 17 31.597656 17 C 30.898438 11.5 24.5 7.199219 17.097656 7.199219 Z M 15 7.597656 L 14 10.699219 C 16.101562 9.5 18.097656 8.902344 20.597656 8.902344 C 24 9 29 11 30.597656 16 C 30.097656 14.5 27.601562 9.601562 21 9.5 C 18.300781 9.398438 16.300781 10.300781 14.402344 11.402344 L 18.699219 10.902344 L 14 12 L 15.300781 13 L 15.097656 12.199219 C 15.5 12.097656 17.101562 11.800781 18.402344 11.800781 L 17.300781 15.800781 C 18 15.800781 18.199219 15.398438 18.300781 14.699219 L 18.5 14.597656 L 18.5 15.902344 C 17.398438 16.101562 16.601562 16.199219 16 16.402344 L 16.699219 14.199219 L 13.597656 12.402344 L 13.699219 12.800781 L 14.199219 13 C 14.5 13.898438 15.199219 15.800781 15.199219 15.902344 C 15.300781 16.101562 15.402344 16.199219 15.800781 16.097656 L 15.902344 16.300781 C 15.101562 16.5 14.699219 16.699219 13.902344 17 L 13.800781 16.800781 C 14 16.699219 14.199219 16.597656 14.097656 16.199219 C 12.898438 13.097656 13 13.300781 13 13.199219 L 13.097656 13 L 14.800781 16.402344 C 14.601562 15.800781 14.898438 16.5 13.199219 12.5 L 11.097656 16.902344 L 11.300781 16.199219 L 9.5 14.097656 L 10.902344 18.800781 L 10.300781 19.199219 C 4.699219 14.097656 5 14.300781 4.597656 14.300781 C 4.300781 14.300781 3.902344 14.597656 3.902344 14.597656 L 3.699219 14.300781 C 5.199219 13.101562 5.300781 13.097656 6.597656 12.199219 L 6.800781 12.597656 C 6.800781 12.597656 6.5 12.800781 6.402344 13 C 6.101562 13.5 6.5 13.699219 9.5 16.800781 L 8.597656 13.902344 L 10.597656 13.402344 L 11.902344 14.902344 L 12.097656 14.300781 L 11.902344 13.097656 L 12.597656 12.902344 L 12.597656 13.097656 L 12.800781 12.597656 L 8 13.800781 L 8.597656 13.597656 L 7.902344 11.5 L 8.800781 11 L 10.300781 12.800781 L 11.699219 12.097656 C 11.597656 11.699219 11.601562 11.398438 11.5 11.097656 L 12.402344 11.800781 L 12.597656 11.699219 L 9.597656 9.597656 L 10.800781 10.199219 C 11.699219 9.898438 12.101562 9.800781 12.402344 9.699219 L 12.5 10.199219 C 11.898438 10.800781 12.601562 11 12.800781 11.199219 L 12.097656 8.097656 L 12.699219 9.5 C 12.898438 9.398438 13.097656 9.402344 13.097656 9.402344 L 13.199219 9.800781 C 13.199219 9.800781 13 9.902344 12.902344 9.902344 L 13.300781 10.902344 Z M 10.402344 10.199219 L 10.902344 10.597656 C 10.902344 10.597656 10.699219 10.597656 10.300781 10.699219 L 10.199219 10.300781 C 10.199219 10.300781 10.300781 10.300781 10.402344 10.199219 Z M 20.210938 11.644531 C 21.050781 11.621094 21.652344 11.75 21.800781 12.5 L 21.800781 13.097656 C 21.800781 13.199219 21.699219 14 21.699219 14.300781 L 21.699219 15.300781 C 21.699219 15.402344 21.699219 15.5 21.800781 15.597656 C 21.902344 15.699219 22.097656 15.699219 22.097656 15.699219 C 22.5 15.699219 22.5 15.402344 22.5 15.402344 C 22.5 15.402344 22.699219 12.699219 22.699219 12.597656 C 22.699219 12.398438 22.5 12.402344 22.5 12.402344 L 22.5 12 C 22.5 12 23.5 12.199219 23.902344 12.402344 L 23.800781 13.300781 C 23.800781 13.300781 24.300781 12.800781 24.597656 12.800781 C 24.898438 12.699219 25.300781 13.199219 25.300781 13.199219 L 24.699219 13.800781 C 24.097656 13.5 23.699219 13.800781 23.699219 13.800781 C 23.398438 15.699219 23.300781 15.898438 23.902344 16.097656 L 23.902344 16.300781 C 23 16 23 16 22.097656 15.902344 C 21.5 15.800781 21.597656 15.902344 21.097656 15.800781 C 20.898438 15.5 21 15.601562 20.902344 15.402344 C 20.699219 15.402344 20.5 15.597656 20.300781 15.699219 C 20.101562 15.800781 19.902344 15.800781 19.800781 15.800781 C 19.800781 15.800781 19.199219 15.902344 18.902344 15.300781 C 18.601562 14.800781 18.898438 14 19.199219 13.699219 C 19.597656 13.300781 20.398438 13.199219 20.597656 12.800781 C 21 12.300781 19.898438 11.699219 19.097656 12.5 L 19 12.5 L 19.300781 11.699219 C 19.625 11.675781 19.929688 11.652344 20.210938 11.640625 Z M 26.902344 11.800781 C 27.5 12.300781 27.699219 12.5 28 12.800781 C 26.699219 16.5 26.5 16.800781 26.800781 17 L 26.699219 17.199219 C 26.398438 17 26.300781 17 25.800781 16.800781 L 25.902344 16.5 C 25.902344 16.5 25.699219 16.699219 25.402344 16.699219 C 24.402344 16.699219 24.199219 15.097656 24.902344 14.097656 C 25.5 13.199219 26.398438 13.300781 26.597656 13.902344 L 27 12.597656 C 27.101562 12.300781 26.902344 12.101562 26.800781 12 Z M 17.148438 12.1875 C 16.75 12.1875 16 12.300781 15.699219 13.199219 L 16.800781 14.097656 L 17.402344 12.199219 C 17.375 12.199219 17.28125 12.1875 17.148438 12.1875 Z M 20.699219 13.402344 C 20.699219 13.402344 20.101562 13.699219 20 13.902344 C 19.800781 14.101562 19.597656 14.398438 19.597656 14.699219 C 19.597656 15.097656 19.800781 15.199219 20.097656 15.199219 C 20.398438 15.199219 20.597656 15.101562 20.597656 14.902344 C 20.597656 14.699219 20.699219 13.402344 20.699219 13.402344 Z M 26.097656 13.800781 C 25.597656 13.699219 25.300781 15 25.199219 15.5 C 25.199219 15.800781 25.101562 16.199219 25.5 16.199219 C 25.800781 16.300781 26 16.300781 26.5 14.5 C 26.601562 14.199219 26.5 13.902344 26.097656 13.800781 Z M 12.800781 13.902344 L 13.402344 17.402344 L 12.800781 17.699219 L 11.597656 16.300781 L 12.300781 15 L 12.5 15.199219 L 12.300781 14.800781 Z M 28 15.300781 C 28.699219 15.199219 29.199219 16.097656 29.199219 16.097656 L 28.800781 16.5 L 28.699219 16.402344 C 28.699219 16.300781 28.800781 16.199219 28.800781 16 C 28.800781 15.5 28.199219 15.402344 28.199219 15.800781 C 28.199219 16 28.597656 16.800781 28.597656 17.199219 C 28.597656 17.699219 28.300781 18 27.902344 18 C 27.5 18 26.902344 17.5 26.902344 17.5 L 27.097656 16.800781 L 27.199219 16.902344 C 27.097656 17.800781 28.101562 17.898438 27.902344 17.199219 C 27.800781 17 27 15.5 28 15.300781 Z M 19.597656 16.300781 C 19.597656 16.402344 19.597656 16.5 19.699219 16.597656 C 19.597656 16.5 19.5 16.398438 18.902344 16.597656 C 18.902344 16.699219 19 16.898438 19 17.097656 C 19.5 17 19.199219 17.101562 19.5 17 L 19.5 17.300781 C 19.300781 17.199219 19.398438 17.300781 19 17.300781 C 19 17.402344 19.097656 17.800781 19.097656 17.902344 C 19.183594 17.902344 19.621094 17.890625 19.8125 17.765625 C 19.800781 17.804688 19.800781 17.851562 19.800781 17.902344 C 19.601562 17.902344 19.097656 18 18.699219 18.097656 L 18.699219 17.902344 C 18.597656 17.5 18.5 17 18.5 16.597656 C 18.5 16.5 18.5 16.5 18.402344 16.402344 C 18.902344 16.300781 19.398438 16.300781 19.597656 16.300781 Z M 21.597656 16.339844 C 21.753906 16.351562 21.925781 16.398438 22.097656 16.5 C 22.199219 16.5 22.199219 16.699219 22.199219 16.800781 C 21.898438 16.300781 21.199219 16.398438 21.097656 17.097656 C 21 18 21.800781 18.097656 22.097656 17.597656 C 22.097656 17.699219 22 17.902344 22 17.902344 C 21.5 18.199219 20.597656 17.800781 20.699219 17 C 20.773438 16.625 21.128906 16.308594 21.597656 16.339844 Z M 17.699219 16.5 C 17.597656 16.601562 17.597656 16.597656 17.699219 16.699219 C 17.800781 17 17.898438 17.699219 18 18 C 18.101562 18.199219 18.097656 18.199219 18.199219 18.300781 C 18 18.402344 17.898438 18.402344 17.699219 18.402344 L 17.699219 18.199219 C 17.597656 18 17.5 17.601562 17.5 17.5 C 17.300781 17.5 17.101562 17.597656 16.902344 17.699219 C 16.902344 17.800781 17.097656 18.199219 17.097656 18.402344 C 17.097656 18.5 17.199219 18.5 17.199219 18.597656 C 17 18.699219 16.800781 18.699219 16.699219 18.800781 C 16.800781 18.699219 16.800781 18.699219 16.699219 18.597656 C 16.597656 18.398438 16.300781 17.398438 16.199219 17.199219 C 16.199219 17.097656 16.097656 17 16.097656 17 C 16.300781 16.898438 16.398438 16.902344 16.597656 16.800781 L 16.597656 17 C 16.699219 17.199219 16.699219 17.398438 16.800781 17.5 C 17 17.398438 17.300781 17.402344 17.402344 17.300781 L 17.300781 16.800781 C 17.300781 16.699219 17.199219 16.597656 17.199219 16.597656 C 17.398438 16.5 17.597656 16.5 17.699219 16.5 Z M 23.160156 16.566406 C 23.242188 16.5625 23.324219 16.574219 23.402344 16.597656 C 23.902344 16.699219 24 17.199219 23.902344 17.597656 C 23.800781 18 23.5 18.199219 23 18.097656 C 22.601562 18 22.300781 17.597656 22.5 17.097656 C 22.648438 16.726562 22.910156 16.574219 23.160156 16.566406 Z M 23.402344 16.699219 C 23.300781 16.699219 22.902344 16.699219 22.800781 17.199219 C 22.699219 17.5 22.800781 17.902344 23.097656 17.902344 C 23.300781 18 23.5 17.902344 23.699219 17.402344 C 23.800781 16.902344 23.601562 16.699219 23.402344 16.699219 Z M 24.699219 17 C 24.800781 17 25 17.097656 25.097656 17.097656 C 25.097656 17.097656 25.101562 17 25 18.402344 C 25.101562 18.5 25.097656 18.5 25.097656 18.597656 C 25 18.597656 24.699219 18.5 24.699219 18.5 L 24.800781 18.402344 L 24.800781 18 C 24.601562 17.898438 24.5 17.902344 24.402344 17.902344 C 24.300781 18 24.300781 18.097656 24.199219 18.199219 L 24.199219 18.402344 C 24.097656 18.402344 24 18.300781 23.902344 18.300781 L 24 18.199219 C 24.199219 18 24.5 17.5 24.699219 17.199219 Z M 15.597656 17.199219 L 15.800781 17.402344 C 15.601562 17.300781 15.398438 17.398438 15.199219 17.5 C 15.800781 19.101562 15.800781 19.097656 15.902344 19.097656 C 15.699219 19.199219 15.601562 19.199219 15.402344 19.300781 C 15.5 19.199219 15.5 19.199219 14.800781 17.699219 C 14.800781 17.699219 14.402344 17.898438 14.300781 18.097656 L 14.199219 17.800781 C 14.597656 17.601562 15.5 17.199219 15.597656 17.199219 Z M 24.902344 17.199219 C 24.800781 17.300781 24.597656 17.597656 24.597656 17.699219 C 24.699219 17.699219 24.800781 17.800781 24.902344 17.800781 Z M 26.050781 17.527344 C 26.199219 17.550781 26.351562 17.652344 26.402344 17.800781 L 26.402344 18 C 26.402344 17.699219 26.101562 17.597656 26 17.699219 C 25.898438 17.800781 26.097656 17.898438 26.097656 18.097656 C 26.199219 18.199219 26.199219 18.398438 26.199219 18.597656 C 26.097656 18.898438 25.601562 18.898438 25.402344 18.597656 L 25.5 18.402344 C 25.5 18.699219 25.800781 18.898438 25.902344 18.597656 C 26 18.5 25.902344 18.300781 25.800781 18.199219 C 25.699219 18.097656 25.597656 17.898438 25.699219 17.699219 C 25.75 17.550781 25.902344 17.5 26.050781 17.523438 Z M 27 18 C 27.199219 18.101562 27.5 18.300781 27.597656 18.402344 L 27.402344 18.699219 C 27.300781 18.5 27.398438 18.601562 27.199219 18.5 C 27.097656 18.699219 26.902344 19 26.800781 19.300781 C 26.699219 19.402344 26.699219 19.5 26.800781 19.5 L 26.5 19.300781 L 26.597656 19.199219 C 26.800781 18.898438 26.898438 18.601562 27.097656 18.300781 C 27 18.199219 27 18.199219 26.800781 18.199219 Z M 13.402344 18.199219 L 13.597656 18.402344 L 13.300781 18.402344 C 13.199219 18.402344 12.898438 18.601562 12.699219 18.800781 L 12.699219 18.902344 C 12.800781 19 12.898438 19.199219 13 19.402344 C 13.5 19.101562 13.398438 19.199219 13.597656 19 C 13.597656 19.101562 13.597656 19.101562 13.699219 19.300781 C 13.5 19.300781 13.5 19.300781 13.097656 19.597656 C 13.597656 20.5 13.699219 20.402344 13.699219 20.402344 C 13.597656 20.5 13.398438 20.597656 13.199219 20.699219 C 13.300781 20.5 13.101562 20.398438 12.300781 19.097656 C 12.199219 19 12.097656 19 12.097656 19 C 12.5 18.699219 12.902344 18.5 13.402344 18.199219 Z M 21.953125 18.839844 C 19.429688 18.824219 16.398438 19.714844 13.597656 21.902344 L 13.597656 22 C 13.699219 22.199219 13.800781 22.5 13.800781 23 C 17 20.101562 20.398438 19.199219 23 19.402344 C 25.898438 19.601562 28 21.101562 28 22.800781 C 28 23.300781 27.902344 23.601562 27.800781 23.800781 C 27.902344 23.601562 28 23.300781 28.097656 22.800781 C 28.300781 20.902344 26.101562 19.199219 23 18.902344 C 22.664062 18.863281 22.3125 18.84375 21.953125 18.839844 Z M 11.417969 19.550781 C 11.917969 19.480469 12.351562 19.875 12.5 20.097656 C 12.398438 20.097656 13 20.898438 12.199219 21.597656 C 11.597656 22 11 21.800781 10.699219 21.402344 C 10.300781 20.902344 10.402344 20.199219 10.902344 19.800781 C 11.074219 19.652344 11.25 19.574219 11.417969 19.550781 Z M 11.253906 19.878906 C 11.160156 19.886719 11.074219 19.925781 11 20 C 10.898438 20.101562 10.398438 20.398438 11 21.199219 C 11.199219 21.5 11.699219 21.800781 12.097656 21.5 C 12.398438 21.300781 12.5 20.902344 12.097656 20.300781 C 11.875 20.074219 11.535156 19.851562 11.253906 19.878906 Z M 11.253906 19.878906 "/>
</g>
</svg>
